# xmcd CD database file
#
# Track frame offsets:
#	150
#	13914
#	26732
#	39410
#	51921
#	64682
#	77667
#	90039
#	102327
#	116008
#	130831
#	144958
#	160539
#	179773
#	194546
#	208653
#	222983
#	244067
#	259651
#	275027
#
# Disc length: 3952 seconds
#
# Revision: 0
# Processed by: cddbd v1.5.2PL0 Copyright (c) Steve Scherf et al.
# Submitted via: CDex 1.70beta2
#
DISCID=1e0f6e14
DTITLE=Big Bill Broonzy - 20 Légendes du Blues CD 19
DYEAR=2008
DGENRE=Blues
TTITLE0=Worrying You Off My Mind
TTITLE1=Too-Too Train
TTITLE2=Bull Cow Blues
TTITLE3=Long Tall Mama
TTITLE4=Just A Dream
TTITLE5=I Feel So Good
TTITLE6=Roll Their Bones
TTITLE7=Why Did You Do That To Me
TTITLE8=Old Man Blues
TTITLE9=Saturday Evening Blues
TTITLE10=Ramblin' Bill
TTITLE11=Guitar Shuffle
TTITLE12=Louise, Louise Blues
TTITLE13=Do Right Blues
TTITLE14=Hey ! Bud Blues
TTITLE15=Letter To My Baby
TTITLE16=Back Water Blues
TTITLE17=Big Bill Blues
TTITLE18=John Henry
TTITLE19=In The Evening
EXTD=YEAR: 2008
EXTT0=
EXTT1=
EXTT2=
EXTT3=
EXTT4=
EXTT5=
EXTT6=
EXTT7=
EXTT8=
EXTT9=
EXTT10=
EXTT11=
EXTT12=
EXTT13=
EXTT14=
EXTT15=
EXTT16=
EXTT17=
EXTT18=
EXTT19=
PLAYORDER=
